<svg xmlns="http://www.w3.org/2000/svg" width="245" height="356" viewBox="0 0 245 356"><path d="M160,84l-9.08,1.45a180.0193,180.0193,0,0,1-56.84,0L85,84C21,144,0,229.67,0,284c0,68.89,52.06,71.87,118,71.99V356h4.5c1.51,0,3.01,0,4.5-.01,65.94-.12,118-3.1,118-71.99C245,229.67,224,144,160,84Zm.05,182.22q-10.41,9.9-28.41,12.03v5.38c0,2.56-.76,4.43-2.26,5.63a9.3169,9.3169,0,0,1-11.05-.05,6.6846,6.6846,0,0,1-2.31-5.58v-5.21q-20.82-1.7848-31.48-11.69-7.5-6.8252-7.51-14.42a9.6835,9.6835,0,0,1,3.12-7.63,11.2854,11.2854,0,0,1,7.8-2.77,13.4373,13.4373,0,0,1,5.51,1.15,28.2316,28.2316,0,0,1,6.18,4.14q11.52,10.4848,24.57,10.49,8.88,0,13.7-3.67a11.7865,11.7865,0,0,0,4.82-9.9,9.3549,9.3549,0,0,0-4.01-7.85q-4.02-2.985-13.14-4.94l-16.04-3.5q-31.0649-6.405-31.06-32.76,0-14.76,10.28-24.4,10.29-9.6448,27.6-11.27v-5.97c0-2.56.76-4.43,2.26-5.63a9.36,9.36,0,0,1,11.01,0c1.51,1.2,2.26,3.07,2.26,5.63v6.14q18.4347,2.4,27.82,11.52,7.3351,6.915,7.33,14.34a8.9875,8.9875,0,0,1-2.86,6.86,9.77,9.77,0,0,1-6.95,2.69q-6.2249,0-12.37-5.29a37.7967,37.7967,0,0,0-10.49-7.42,28.0991,28.0991,0,0,0-11.44-2.22c-4.94,0-8.93,1.24-11.94,3.71a11.4137,11.4137,0,0,0-4.52,9.17q0,9.5551,15.78,12.63l16.13,3.33q32.07,6.225,32.08,32.33Q170.46,256.325,160.05,266.22Z" fill="#fff"/><rect x="81" y="61" width="82" height="14" rx="6.5379" fill="#fff"/><path d="M170.339,32.85,157,50l-1.9039-.3264a195.878,195.878,0,0,0-66.1922,0L87,50,73.661,32.85A11.6794,11.6794,0,0,1,82.88,14l18.62,4C104.7,9.81,112.67,0,122,0s17.3,9.81,20.5,18l18.62-4A11.6794,11.6794,0,0,1,170.339,32.85Z" fill="#fff"/></svg>