<svg xmlns="http://www.w3.org/2000/svg" width="66.606" height="80.5" viewBox="0 0 66.606 80.5"><defs><style>.a{fill:#fff;}.b,.c{fill:none;}.c{stroke:#fff;stroke-width:2px;}.d,.e{stroke:none;}.e{fill:#fff;}</style></defs><g transform="translate(-1667 -1487.5)"><path class="a" d="M33.464,34.2H0a15.346,15.346,0,0,1,1.247-4.871,15.906,15.906,0,0,1,2.675-4.157,16.651,16.651,0,0,1,3.835-3.188,17.1,17.1,0,0,1,4.728-1.963,11.012,11.012,0,0,1-2.694-1.561,10.66,10.66,0,0,1-2.108-2.215A10.033,10.033,0,0,1,6.676,6.365a10.285,10.285,0,0,1,1.006-1.77A10.618,10.618,0,0,1,9.015,3.052,10.9,10.9,0,0,1,10.63,1.78,11.085,11.085,0,0,1,12.484.819a11.426,11.426,0,0,1,8.5,0,11.085,11.085,0,0,1,1.854.961,10.9,10.9,0,0,1,1.615,1.273,10.62,10.62,0,0,1,1.333,1.542,10.283,10.283,0,0,1,1.006,1.77,10.032,10.032,0,0,1-1.006,9.883,10.661,10.661,0,0,1-2.108,2.215,11.013,11.013,0,0,1-2.694,1.561,17.1,17.1,0,0,1,4.728,1.963,16.652,16.652,0,0,1,3.835,3.188,15.906,15.906,0,0,1,2.675,4.157A15.346,15.346,0,0,1,33.464,34.2Z" transform="translate(1683.572 1523.896)"/><g class="b" transform="translate(1667 1501.394)"><path class="d" d="M9,0h48.6a9,9,0,0,1,9,9v48.6a9,9,0,0,1-9,9H9a9,9,0,0,1-9-9V9A9,9,0,0,1,9,0Z"/><path class="e" d="M 9.000843048095703 5.000003814697266 C 6.794776916503906 5.000003814697266 5.000003814697266 6.794776916503906 5.000003814697266 9.000843048095703 L 5.000003814697266 57.60544586181641 C 5.000003814697266 59.8115234375 6.794776916503906 61.60629653930664 9.000843048095703 61.60629653930664 L 57.60544586181641 61.60629653930664 C 59.8115234375 61.60629653930664 61.60629653930664 59.8115234375 61.60629653930664 57.60544586181641 L 61.60629653930664 9.000843048095703 C 61.60629653930664 6.794776916503906 59.8115234375 5.000003814697266 57.60544586181641 5.000003814697266 L 9.000843048095703 5.000003814697266 M 9.000843048095703 0 L 57.60544586181641 0 C 62.57648468017578 0 66.60630035400391 4.029815673828125 66.60630035400391 9.000843048095703 L 66.60630035400391 57.60544586181641 C 66.60630035400391 62.57648468017578 62.57648468017578 66.60630035400391 57.60544586181641 66.60630035400391 L 9.000843048095703 66.60630035400391 C 4.029815673828125 66.60630035400391 0 62.57648468017578 0 57.60544586181641 L 0 9.000843048095703 C 0 4.029815673828125 4.029815673828125 0 9.000843048095703 0 Z"/></g><path class="a" d="M21.749,21H5.25a5.25,5.25,0,1,1,0-10.5H6.394V7.106a7.105,7.105,0,1,1,14.21,0V10.5h1.145a5.25,5.25,0,1,1,0,10.5ZM13.5,3.5a2.1,2.1,0,1,0,2.131,2.1A2.118,2.118,0,0,0,13.5,3.5Z" transform="translate(1687.303 1487.5)"/><line class="c" x2="38.704" transform="translate(1681.851 1513.545)"/><line class="c" x2="38.704" transform="translate(1681.851 1518.946)"/></g></svg>