<svg xmlns="http://www.w3.org/2000/svg" width="57.641" height="100.742" viewBox="0 0 57.641 100.742">
  <g id="Scissor_v001" transform="translate(0)">
    <path id="Path_42" data-name="Path 42" d="M103.845,4.471a7.519,7.519,0,0,0-3.995.191A17.742,17.742,0,0,0,94.8,1.287C91.632.089,85.611,0,85.611,0a24.557,24.557,0,0,1,7.127,3.49,12.582,12.582,0,0,1,3.032,3.79,13.46,13.46,0,0,0-3.343,6.339c-1.21,5.285-.08,13.722,3.342,16.741l-7.335,16.4S85.255,60.249,83.7,73.364a183.263,183.263,0,0,0-1.14,24.447c.145,2.119,3.352,2.931,3.352,2.931a238.385,238.385,0,0,1,2.437-26.608,184.036,184.036,0,0,1,6.4-26.731c1.493-4.2,2.849-13.786,4.122-15.935,4.653-.33,9.971-8.113,11.271-13.793C111.56,11.5,108.738,5.591,103.845,4.471ZM107.206,17c-.944,4.123-5.64,13.061-8.909,12.313s-3.872-10.9-2.929-15.023,4.131-5.863,7.4-5.115,5.381,3.7,4.438,7.825Z" transform="translate(-61.865 0)" fill="#fff"/>
    <path id="Path_43" data-name="Path 43" d="M57.557,112.618A162.7,162.7,0,0,0,48.234,92.6c-6.76-12.328-15.5-25.615-15.5-25.615L20.124,54.031c2.105-4.041.281-12.265-2.645-16.781A13.883,13.883,0,0,0,13.787,33.4a14.1,14.1,0,0,1,.034-4.961l-4.357,3.1a7.908,7.908,0,0,0-5.846,1.036C-.595,35.3-1.22,41.818,2.223,47.132c3.2,4.939,10.982,10.489,15.447,9.056,1.928,1.577,6.5,10.124,9.35,13.571A269.2,269.2,0,0,1,43.982,94.776c6.587,11.072,11.431,21.744,11.431,21.744S58.148,114.658,57.557,112.618ZM4.755,45.492c-2.3-3.55-1.327-7.049,1.488-8.872s6.4-1.28,8.7,2.27,5.085,13.01,2.27,14.833S7.055,49.042,4.755,45.492Z" transform="translate(0 -21.32)" fill="#fff"/>
  </g>
</svg>
