<svg xmlns="http://www.w3.org/2000/svg" width="260" height="950" viewBox="0 0 260 950"><path d="M260,186.77v12.46a7.7716,7.7716,0,0,1-7.77,7.77H249v14.65a6.3463,6.3463,0,0,1-6.35,6.35H231.54a6.1656,6.1656,0,0,1,.46,2.36v11.28a6.3633,6.3633,0,0,1-6.36,6.36H34.36A6.3633,6.3633,0,0,1,28,241.64V230.36a6.1656,6.1656,0,0,1,.46-2.36H17.35A6.3463,6.3463,0,0,1,11,221.65V207H7.77A7.7716,7.7716,0,0,1,0,199.23V186.77A7.7716,7.7716,0,0,1,7.77,179H252.23A7.7716,7.7716,0,0,1,260,186.77Zm0,642.46V816.77a7.7716,7.7716,0,0,0-7.77-7.77H249V794.35a6.3463,6.3463,0,0,0-6.35-6.35H231.54a6.1656,6.1656,0,0,0,.46-2.36V774.36a6.3633,6.3633,0,0,0-6.36-6.36H34.36A6.3633,6.3633,0,0,0,28,774.36v11.28a6.1656,6.1656,0,0,0,.46,2.36H17.35A6.3463,6.3463,0,0,0,11,794.35V809H7.77A7.7716,7.7716,0,0,0,0,816.77v12.46A7.7716,7.7716,0,0,0,7.77,837H252.23A7.7716,7.7716,0,0,0,260,829.23ZM147.93,19.59c.05-.52.07-1.05.07-1.59a18,18,0,0,0-36,0c0,.54.02,1.07.07,1.59A101.0349,101.0349,0,0,0,43.4,171H216.6A101.0349,101.0349,0,0,0,147.93,19.59ZM81.14,254,49,275v89.96L211,259.11V254ZM49,420v89.96L211,404.11V314.15Zm0,146v89.96L211,550.11V460.15Zm0,149v47h65.75L211,699.11V609.15ZM16,843v42.63A43.3733,43.3733,0,0,0,59.37,929h59.51a13.8544,13.8544,0,0,0-1.88,7,14,14,0,0,0,28,0,13.8544,13.8544,0,0,0-1.88-7h59.51A43.3733,43.3733,0,0,0,246,885.63V843ZM81.14,254,49,275v89.96L211,259.11V254ZM49,420v89.96L211,404.11V314.15Zm0,146v89.96L211,550.11V460.15Zm0,149v47h65.75L211,699.11V609.15Z" fill="#f1e579"/></svg>