<svg xmlns="http://www.w3.org/2000/svg" width="105.465" height="184.326" viewBox="0 0 105.465 184.326">
  <g id="Scissor_v001" transform="translate(0)">
    <path id="Path_42" data-name="Path 42" d="M121.546,8.181a13.757,13.757,0,0,0-7.31.35c-2.144-1.945-5.718-4.843-9.24-6.176C99.2.163,88.184,0,88.184,0s7.677,2.212,13.04,6.385a23.021,23.021,0,0,1,5.549,6.935,24.627,24.627,0,0,0-6.117,11.6c-2.214,9.67-.147,25.107,6.115,30.63l-13.422,30s-5.817,24.686-8.661,48.682A335.313,335.313,0,0,0,82.6,178.963c.265,3.877,6.133,5.363,6.133,5.363a436.17,436.17,0,0,1,4.458-48.684,336.73,336.73,0,0,1,11.716-48.91c2.732-7.69,5.213-25.225,7.543-29.155,8.513-.6,18.244-14.844,20.623-25.238C135.661,21.046,130.5,10.23,121.546,8.181Zm6.149,22.927c-1.728,7.543-10.32,23.9-16.3,22.529s-7.084-19.943-5.358-27.488,7.558-10.728,13.539-9.358,9.846,6.772,8.12,14.317Z" transform="translate(-44.735 0)" fill="#f1e579"/>
    <path id="Path_43" data-name="Path 43" d="M105.312,182.463a297.686,297.686,0,0,0-17.059-36.62c-12.368-22.556-28.36-46.868-28.36-46.868L36.82,75.268c3.852-7.395.514-22.44-4.839-30.7a25.4,25.4,0,0,0-6.754-7.052,25.791,25.791,0,0,1,.063-9.077L17.317,34.1A14.468,14.468,0,0,0,6.62,36c-7.708,4.993-8.852,16.923-2.553,26.646,5.853,9.038,20.094,19.192,28.263,16.57,3.528,2.886,11.891,18.524,17.108,24.831,3.742,4.524,18.984,25.515,31.036,45.773S101.388,189.6,101.388,189.6,106.392,186.2,105.312,182.463ZM8.7,59.644c-4.207-6.5-2.427-12.9,2.722-16.233s11.718-2.342,15.926,4.153,9.3,23.8,4.153,27.14S12.908,66.139,8.7,59.644Z" transform="translate(0 -15.416)" fill="#f1e579"/>
  </g>
</svg>
