<svg xmlns="http://www.w3.org/2000/svg" width="260" height="950" viewBox="0 0 260 950"><path d="M131.5,950a13.4939,13.4939,0,0,1-11.688-20.248L120.25,929H59.87A42.9186,42.9186,0,0,1,17,886.13V844H246v42.13A42.9186,42.9186,0,0,1,203.13,929H142.7505l.4375.752A13.4939,13.4939,0,0,1,131.5,950ZM8.27,837A7.2777,7.2777,0,0,1,1,829.7305V817.27A7.2777,7.2777,0,0,1,8.27,810H12V794.85A5.8565,5.8565,0,0,1,17.85,789H29.7056l-.2832-.6895A5.6925,5.6925,0,0,1,29,786.14V774.86A5.8668,5.8668,0,0,1,34.86,769H226.14a5.8668,5.8668,0,0,1,5.86,5.86V786.14a5.6925,5.6925,0,0,1-.4224,2.1709l-.2832.6895H243.15a5.8565,5.8565,0,0,1,5.85,5.85V810h3.73A7.2777,7.2777,0,0,1,260,817.27v12.461A7.2777,7.2777,0,0,1,252.73,837ZM50,762v-46.23L211,610.5742V699.34L115.1011,762Zm0-195.23L211,461.5742V550.34L50,655.5361Zm0-146L211,315.5742V404.34L50,509.5361Zm0-145L81.7891,255H211v4.34L50,364.5361ZM34.86,248A5.8668,5.8668,0,0,1,29,242.14V230.86a5.6925,5.6925,0,0,1,.4224-2.1709l.2832-.69H17.85A5.8565,5.8565,0,0,1,12,222.15V207H8.27A7.2777,7.2777,0,0,1,1,199.7305V187.27A7.2777,7.2777,0,0,1,8.27,180H252.73A7.2777,7.2777,0,0,1,260,187.27v12.461A7.2777,7.2777,0,0,1,252.73,207H249v15.15a5.8565,5.8565,0,0,1-5.85,5.85H231.2944l.2832.69A5.6925,5.6925,0,0,1,232,230.86V242.14a5.8668,5.8668,0,0,1-5.86,5.86Zm9.3232-77A100.5358,100.5358,0,0,1,112.6582,20.582l.4536-.081-.0439-.459C113.022,19.5684,113,19.0645,113,18.5a17.5,17.5,0,0,1,35,0c0,.5645-.022,1.0684-.0679,1.542l-.0439.459.4536.081A100.5358,100.5358,0,0,1,216.8169,171Z" transform="translate(-0.5 -0.5)"/><path d="M130.5,1.5a17.0192,17.0192,0,0,1,17,17c0,.5479-.0214,1.0366-.0654,1.4943l-.0883.9174.9074.1626A100.0362,100.0362,0,0,1,216.5328,170.5H44.4672A100.0311,100.0311,0,0,1,112.7463,21.0743l.9074-.1626-.0883-.9174c-.044-.4577-.0654-.9464-.0654-1.4943a17.0192,17.0192,0,0,1,17-17m122.23,179a6.7777,6.7777,0,0,1,6.77,6.77v12.46a6.7777,6.7777,0,0,1-6.77,6.77H248.5v15.65a5.3561,5.3561,0,0,1-5.35,5.35H230.5479l.5672,1.38a5.1816,5.1816,0,0,1,.3849,1.98v11.28a5.366,5.366,0,0,1-5.36,5.36H34.86a5.366,5.366,0,0,1-5.36-5.36V230.86a5.1816,5.1816,0,0,1,.3849-1.98l.5672-1.38H17.85a5.3561,5.3561,0,0,1-5.35-5.35V206.5H8.27a6.7777,6.7777,0,0,1-6.77-6.77V187.27a6.7777,6.7777,0,0,1,6.77-6.77H252.73m-26.59,589a5.366,5.366,0,0,1,5.36,5.36v11.28a5.1816,5.1816,0,0,1-.3849,1.98l-.5672,1.38H243.15a5.3561,5.3561,0,0,1,5.35,5.35V810.5h4.23a6.7777,6.7777,0,0,1,6.77,6.77v12.46a6.7777,6.7777,0,0,1-6.77,6.77H8.27a6.7777,6.7777,0,0,1-6.77-6.77V817.27a6.7777,6.7777,0,0,1,6.77-6.77H12.5V794.85a5.3561,5.3561,0,0,1,5.35-5.35H30.4521l-.5672-1.38a5.1816,5.1816,0,0,1-.3849-1.98V774.86a5.366,5.366,0,0,1,5.36-5.36H226.14m19.36,75v41.63a42.4179,42.4179,0,0,1-42.37,42.37H141.88l.8757,1.5033a13,13,0,1,1-22.5118,0L121.12,928.5H59.87A42.4179,42.4179,0,0,1,17.5,886.13V844.5h228M130.5.5a18.0014,18.0014,0,0,0-18,18c0,.54.02,1.07.07,1.59A101.0349,101.0349,0,0,0,43.9,171.5H217.1A101.0349,101.0349,0,0,0,148.43,20.09c.05-.52.07-1.05.07-1.59a18.0014,18.0014,0,0,0-18-18Zm122.23,179H8.27A7.7716,7.7716,0,0,0,.5,187.27v12.46a7.7716,7.7716,0,0,0,7.77,7.77H11.5v14.65a6.3463,6.3463,0,0,0,6.35,6.35H28.96a6.1656,6.1656,0,0,0-.46,2.36v11.28a6.3633,6.3633,0,0,0,6.36,6.36H226.14a6.3633,6.3633,0,0,0,6.36-6.36V230.86a6.1656,6.1656,0,0,0-.46-2.36h11.11a6.3463,6.3463,0,0,0,6.35-6.35V207.5h3.23a7.7716,7.7716,0,0,0,7.77-7.77V187.27a7.7716,7.7716,0,0,0-7.77-7.77Zm-41.23,75H81.64l-32.14,21,32.14-21H211.5v0Zm0,5.11L49.5,365.46v0l162-105.85Zm0,55.04L49.5,420.5l162-105.85v0Zm0,89.96L49.5,510.46v0l162-105.85Zm0,56.04L49.5,566.5l162-105.85v0Zm0,89.96L49.5,656.46v0l162-105.85Zm0,59.04L49.5,715.5l162-105.85v0Zm0,89.96L115.25,762.5H49.5v0h65.75l96.25-62.89Zm14.64,68.89H34.86a6.3633,6.3633,0,0,0-6.36,6.36v11.28a6.1656,6.1656,0,0,0,.46,2.36H17.85a6.3463,6.3463,0,0,0-6.35,6.35V809.5H8.27A7.7716,7.7716,0,0,0,.5,817.27v12.46a7.7716,7.7716,0,0,0,7.77,7.77H252.73a7.7716,7.7716,0,0,0,7.77-7.77V817.27a7.7716,7.7716,0,0,0-7.77-7.77H249.5V794.85a6.3463,6.3463,0,0,0-6.35-6.35H232.04a6.1656,6.1656,0,0,0,.46-2.36V774.86a6.3633,6.3633,0,0,0-6.36-6.36Zm20.36,75H16.5v42.63A43.3733,43.3733,0,0,0,59.87,929.5h59.51a13.8544,13.8544,0,0,0-1.88,7,14,14,0,0,0,28,0,13.8544,13.8544,0,0,0-1.88-7h59.51a43.3733,43.3733,0,0,0,43.37-43.37V843.5Z" transform="translate(-0.5 -0.5)"/></svg>