<svg xmlns="http://www.w3.org/2000/svg" width="298.2613" height="447.15" viewBox="0 0 298.2613 447.15"><title>flexibility_v001</title><path d="M159.3207,432.57a14.9942,14.9942,0,0,1-14.98,14.58c-.15,0-.29,0-.43-.01a14.9879,14.9879,0,0,1-14.57-15.41c.02-.73,2.02-72.69.06-96.15-.81-4.18-9.44-20.79-26.93-42.6-12.95-16.14-26.15-29.38-37.1-37.38l-24.01,21.77a12.8451,12.8451,0,0,1-21.19-6.8L.3007,178.64a12.8447,12.8447,0,0,1,16.48-14.95l89.56,28.75a12.8526,12.8526,0,0,1,4.7,21.75l-23.07,20.92c15.9,12.74,30.39,29.63,38.95,40.42,7.22,9.09,30.89,40.1,32.36,57.35C161.4008,357.85,159.4108,429.53,159.3207,432.57Z" fill="#2a7f2a"/><path d="M297.9606,178.64l-19.87,91.93a12.845,12.845,0,0,1-21.19,6.8l-27.32-24.77c-11.7,7.43-26.74,22.03-41.46,40.38-6.66,8.3-12.03,15.85-16.18,22.24a119.2941,119.2941,0,0,0-9.61-28.44c-.94-1.93-1.92-3.83-2.97-5.7a120.36,120.36,0,0,0-27.03-33.12V107.15h-32.03a12.8507,12.8507,0,0,1-11.13-19.27l47.03-81.46a12.8575,12.8575,0,0,1,22.26,0l47.03,81.46a12.8506,12.8506,0,0,1-11.13,19.27h-32.03V277.23c.49-.63.94-1.2,1.34-1.7,9.3-11.72,25.59-30.64,43.1-43.61l-19.55-17.73a12.8452,12.8452,0,0,1,4.7-21.75l89.55-28.75A12.8484,12.8484,0,0,1,297.9606,178.64Z" fill="#2a7f2a"/></svg>