<svg xmlns="http://www.w3.org/2000/svg" width="401.8356" height="563.1348" viewBox="0 0 401.8356 563.1348"><title>Hair_v001</title><path d="M0,195.3478a334.3416,334.3416,0,0,1,17.3586-36.4013c6.4339-11.8393,13.4642-23.3744,20.9795-34.6372a383.7608,383.7608,0,0,1,52.19-62.9156q7.4789-7.1516,15.4651-13.8692,8.0223-6.6677,16.6311-12.7412A209.8983,209.8983,0,0,1,159.5859,13.73a165.8471,165.8471,0,0,1,41.84-12.1949A146.5671,146.5671,0,0,1,223.5464.0053a144.5081,144.5081,0,0,1,22.1582,1.9215A151.8135,151.8135,0,0,1,267.22,7.21a164.8137,164.8137,0,0,1,20.3269,8.2615,176.2547,176.2547,0,0,1,18.856,10.6758,195.096,195.096,0,0,1,17.33,12.5936,199.764,199.764,0,0,1,15.9448,14.4054,184.9479,184.9479,0,0,1,14.1287,16.0851,197.5815,197.5815,0,0,1,12.2526,17.4024q5.6056,9.0111,10.29,18.46c12.42,25.2219,19.7952,52.2473,23.2173,79.3319a291.0287,291.0287,0,0,1,2.2322,40.6942c-.0821,6.7658-.451,13.5178-1.032,20.2335A188.2172,188.2172,0,0,1,398,265.3478c-.3586-6.6986-.9687-13.3361-1.7346-19.9411-.7446-6.6035-1.6819-13.1658-2.7383-19.6845a382.2615,382.2615,0,0,0-8.3171-38.4783c-6.8377-25.1511-16.3863-49.3075-29.4671-70.9215q-4.8709-8.115-10.4421-15.682c-3.7144-5.0318-7.58-9.92-11.7183-14.5461A184.15,184.15,0,0,0,274.834,42.1892a132.2444,132.2444,0,0,0-34.0454-10.6719c-23.303-3.9229-47.4827-.5786-70.2871,8.4843A207.1968,207.1968,0,0,0,137.23,56.8291c-5.3765,3.2981-10.6243,6.8689-15.8047,10.5825q-7.7889,5.55-15.2774,11.65C86.1333,95.2577,67.5686,113.76,49.9822,133.3432A788.03,788.03,0,0,0,0,195.3478Z" fill="#232323"/><path d="M32,176.3478a358.404,358.404,0,0,1,29.5828-42.3491c5.3855-6.7643,11.0866-13.2838,16.9682-19.6627Q87.3866,104.78,96.93,95.8121A269.9733,269.9733,0,0,1,138.718,63.7234a190.5931,190.5931,0,0,1,23.74-12.4627,159.811,159.811,0,0,1,25.7507-8.8383,139.9956,139.9956,0,0,1,27.3811-4.016,129.6494,129.6494,0,0,1,27.95,1.8124,131.4188,131.4188,0,0,1,27,7.7116,162.4307,162.4307,0,0,1,24.802,12.7266c15.7316,9.8094,29.4453,22.0719,41.8791,35.17a108.5621,108.5621,0,0,1,16.7964,24.1955,158.1264,158.1264,0,0,1,10.5991,26.2221c.7568,2.212,1.2832,4.4428,1.9133,6.6665.2984,1.1129.6184,2.2259.8973,3.34l.7812,3.3445c.5,2.234,1.0286,4.469,1.4236,6.7029.4187,2.2329.8782,4.4705,1.2156,6.7083a254.512,254.512,0,0,1,2.834,26.7988c.5283,8.9137.4287,17.7791.278,26.603-.2678,8.8252-.8405,17.59-1.5056,26.3234-.76,8.7217-1.5586,17.4138-2.5915,26.0593l-1.524,12.9536c-.559,4.3063-1.1,8.6134-1.71,12.9052-2.3179,17.1863-5.1541,34.25-8.33,51.2208-6.3829,33.9356-14.1526,67.4947-22.8973,100.7469C326.6365,489.8607,316.94,522.8284,306,555.3478c4.2144-16.6247,7.9954-33.3459,11.5867-50.0966q5.34-25.1374,10.0376-50.3719c6.197-33.6521,11.385-67.4577,15.1535-101.3246,3.6853-33.8477,6.2862-67.8274,5.2334-101.4884-.2837-8.4007-.6548-16.7773-1.3161-25.0879-.5918-8.3063-1.3409-16.5773-2.3186-24.739-.9461-8.1645-2.0467-16.2643-3.4156-24.2208-.7568-3.9549-1.3935-7.9388-2.3066-11.8123l-.6116-2.93c-.2163-.97-.4685-1.9226-.7-2.8853-.4858-1.9124-.9055-3.8657-1.4692-5.7324-4.0457-15.1709-10.2173-29.3774-19.4453-40.1664-10.5813-12.2577-22.2122-23.478-35.1487-32.5326a137.69,137.69,0,0,0-20.29-11.8285,113.1932,113.1932,0,0,0-21.9606-7.6819A114.9729,114.9729,0,0,0,192.2808,61.39a149.3358,149.3358,0,0,0-23.3553,6.191,194.9441,194.9441,0,0,0-22.6042,9.7151,261.47,261.47,0,0,0-42.1382,27.0584A391.6938,391.6938,0,0,0,66.12,138.0658q-9.0455,9.0311-17.5774,18.6178C42.8245,163.0448,37.2864,169.5813,32,176.3478Z" fill="#232323"/><path d="M43,197.3478a344.5146,344.5146,0,0,1,32.7041-41.793q8.9466-9.8775,18.6238-19.1449c6.48-6.139,13.1587-12.1172,20.1443-17.7816a250.9886,250.9886,0,0,1,45.583-29.8343,174.5714,174.5714,0,0,1,25.9414-10.461c2.2368-.7429,4.5508-1.2993,6.8357-1.9358,2.2959-.6066,4.6406-1.0838,6.9663-1.6218a129.9383,129.9383,0,0,1,14.3071-2.0733,114.5449,114.5449,0,0,1,29.364,1.1843,109.5823,109.5823,0,0,1,28.2439,9.1784,117.2518,117.2518,0,0,1,12.8953,7.2384c1.0574.6366,2.039,1.3611,3.0376,2.0672l2.9883,2.1286c1.0144.6919,1.9421,1.4716,2.8972,2.2244L296.3811,99c3.7195,3.1082,7.3013,6.3522,10.6641,9.7642,1.747,1.6594,3.3152,3.4444,4.9367,5.1943l2.4168,2.6506,2.3977,2.97a103.97,103.97,0,0,1,14.8081,25.7167,138.8408,138.8408,0,0,1,7.7922,27.4163c.4761,2.299.7542,4.61,1.117,6.9089.3637,2.3016.58,4.6094.8122,6.91l.3494,3.4475c.0933,1.1485.16,2.2975.2244,3.4468.12,2.2979.2954,4.5891.32,6.8785.0444,2.2888.1382,4.5726.1377,6.8517l-.0432,6.824c-.148,4.5394-.2906,9.0617-.6324,13.5611-.6181,9.0005-1.5441,17.92-2.7182,26.7661-1.1941,8.8443-2.4771,17.6325-4.0164,26.36-1.53,8.7274-3.11,17.4216-4.8977,26.0685-.8364,4.3344-1.8139,8.6383-2.7312,12.9532-1.0278,4.29-1.97,8.6-3.1062,12.862a488.7112,488.7112,0,0,1-15.7932,50.4434,455.08,455.08,0,0,1-21.2383,48.35c-1.9636,3.94-4.11,7.7859-6.19,11.664l-3.2614,5.7407c-1.0677,1.9246-2.1885,3.8186-3.3289,5.7011-4.4639,7.5873-9.2874,14.9612-14.3345,22.1723-5.0188,7.2334-10.447,14.1793-16.104,20.9228a238.7381,238.7381,0,0,1-18.0547,19.2638c-3.1435,3.0844-6.48,5.9623-9.7915,8.8625l-5.1179,4.1759c-1.6973,1.4021-3.498,2.6746-5.2422,4.0182a173.9194,173.9194,0,0,1-22.32,14.112,137.6743,137.6743,0,0,1-50.3674,15.1574l-.1362-1.5739a126.5865,126.5865,0,0,0,25.644-4.9424,140.16,140.16,0,0,0,24.1905-9.9207,172.4822,172.4822,0,0,0,22.1142-14.009c1.73-1.3349,3.5147-2.5979,5.1983-3.9914l5.0427-4.1889c3.2578-2.9135,6.5393-5.8016,9.6291-8.8961a236.9566,236.9566,0,0,0,17.7285-19.3069c5.5489-6.7535,10.8685-13.704,15.78-20.94,4.94-7.2133,9.6555-14.5849,14.0132-22.1676,2.2492-3.7494,4.2922-7.6191,6.3979-11.4492,2-3.8891,4.0645-7.7428,5.9468-11.69A446.4985,446.4985,0,0,0,304.85,381.7026a484.35,484.35,0,0,0,14.5288-50.3249c3.9409-16.9962,7.0562-34.2238,8.2693-51.6088l.4292-6.5131c.1135-2.1719.1692-4.3478.2437-6.5193.094-4.3457.18-8.6871.0439-13.0247A259.0317,259.0317,0,0,0,326.623,227.86a259.8532,259.8532,0,0,0-10.3657-49.4767c-4.9765-15.63-11.5989-30.3181-20.7541-41.9086l-1.7205-2.1621L291.8,132.07c-1.3349-1.49-2.6267-3.0371-4.0466-4.4184-2.7422-2.891-5.6269-5.5891-8.5884-8.1639l-2.26-1.871c-.7556-.6194-1.49-1.2747-2.2856-1.8264l-2.3418-1.73c-.7808-.5763-1.5489-1.1774-2.3687-1.68a95.0627,95.0627,0,0,0-9.8554-5.9554,87.4188,87.4188,0,0,0-21.4053-7.8071,89.9084,89.9084,0,0,0-23.03-2.0013c-1.9573.0178-3.9258.2252-5.8965.3478-1.971.1421-3.9439.447-5.9224.6549-1.9717.34-3.9541.6072-5.9282,1.0033-1.9705.4279-3.9568.763-5.9211,1.2914a170.8326,170.8326,0,0,0-23.4622,7.5609,270.1255,270.1255,0,0,0-44.8027,23.8026,457.9624,457.9624,0,0,0-41.7115,30.8353q-5.0174,4.1794-9.9892,8.4473-4.9527,4.2871-9.8316,8.6861-4.86,4.4161-9.6809,8.91Q47.6838,192.6817,43,197.3478Z" fill="#232323"/><polygon points="300 110.348 259 64.348 279 57.348 239 24.348 321 59.848 359 118.848 344 102.848 350 128.348 337 204.848 300 110.348" fill="#232323"/></svg>