<svg xmlns="http://www.w3.org/2000/svg" width="192" height="178.8" viewBox="0 0 192 178.8"><defs><style>.a{fill:#e4b603;}</style></defs><path class="a" d="M70.8,101.481V178.8H0V117.186C0,84.568,3.6,60.405,12,44.7,22.8,25.37,38.4,9.665,61.2,0L78,26.578c-13.2,6.041-24,14.5-30,25.37-7.2,10.873-10.8,27.786-10.8,49.532Zm115.2,0V178.8H115.2V117.186c0-33.827,3.6-56.781,12-72.486C138,25.37,153.6,9.665,176.4,0L192,26.578c-13.2,6.041-24,14.5-30,25.37s-9.6,27.786-10.8,49.532Z" transform="translate(0 0)"/></svg>