<svg xmlns="http://www.w3.org/2000/svg" width="494" height="471" viewBox="0 0 494 471"><title>Saloon_v001</title><path d="M38,0h0a0,0,0,0,1,0,0V433A38,38,0,0,1,0,471H0a0,0,0,0,1,0,0V38A38,38,0,0,1,38,0Z"/><path d="M19,116s40,12,85,0c33-40,82-71,111-71V412H19Z" fill="none" stroke="#000" stroke-miterlimit="10" stroke-width="27"/><line x1="125" y1="90.5" x2="211.5" y2="90.5" fill="none" stroke="#000" stroke-miterlimit="10" stroke-width="27"/><line x1="28.5" y1="135.5" x2="211.5" y2="135.5" fill="none" stroke="#000" stroke-miterlimit="10" stroke-width="27"/><line x1="29" y1="180.5" x2="212" y2="180.5" fill="none" stroke="#000" stroke-miterlimit="10" stroke-width="27"/><line x1="29" y1="225.5" x2="212" y2="225.5" fill="none" stroke="#000" stroke-miterlimit="10" stroke-width="27"/><line x1="29" y1="270.5" x2="212" y2="270.5" fill="none" stroke="#000" stroke-miterlimit="10" stroke-width="27"/><line x1="29" y1="315.5" x2="212" y2="315.5" fill="none" stroke="#000" stroke-miterlimit="10" stroke-width="27"/><line x1="29" y1="360.5" x2="212" y2="360.5" fill="none" stroke="#000" stroke-miterlimit="10" stroke-width="27"/><line x1="38.5" y1="130.5" x2="38.5" y2="401.5" fill="none" stroke="#000" stroke-miterlimit="10" stroke-width="27"/><path d="M456,0h0a38,38,0,0,1,38,38V471a0,0,0,0,1,0,0h0a38,38,0,0,1-38-38V0a0,0,0,0,1,0,0Z" transform="translate(950 471) rotate(-180)"/><path d="M475,116s-40,12-85,0c-33-40-82-71-111-71V412H475Z" fill="none" stroke="#000" stroke-miterlimit="10" stroke-width="27"/><line x1="369" y1="90.5" x2="282.5" y2="90.5" fill="none" stroke="#000" stroke-miterlimit="10" stroke-width="27"/><line x1="465.5" y1="135.5" x2="282.5" y2="135.5" fill="none" stroke="#000" stroke-miterlimit="10" stroke-width="27"/><line x1="465" y1="180.5" x2="282" y2="180.5" fill="none" stroke="#000" stroke-miterlimit="10" stroke-width="27"/><line x1="465" y1="225.5" x2="282" y2="225.5" fill="none" stroke="#000" stroke-miterlimit="10" stroke-width="27"/><line x1="465" y1="270.5" x2="282" y2="270.5" fill="none" stroke="#000" stroke-miterlimit="10" stroke-width="27"/><line x1="465" y1="315.5" x2="282" y2="315.5" fill="none" stroke="#000" stroke-miterlimit="10" stroke-width="27"/><line x1="465" y1="360.5" x2="282" y2="360.5" fill="none" stroke="#000" stroke-miterlimit="10" stroke-width="27"/><line x1="455.5" y1="130.5" x2="455.5" y2="401.5" fill="none" stroke="#000" stroke-miterlimit="10" stroke-width="27"/></svg>