<svg xmlns="http://www.w3.org/2000/svg" width="230.3584" height="402.6073" viewBox="0 0 230.3584 402.6073"><title>Scissor_v001</title><path d="M167.7723,17.87a30.0472,30.0472,0,0,0-15.9656.7638c-4.6838-4.2475-12.49-10.5787-20.1828-13.49C118.9628.3557,94.9021,0,94.9021,0s16.7674,4.8307,28.482,13.9457c5.3619,4.17,9.4712,10.3469,12.1191,15.147a53.791,53.791,0,0,0-13.36,25.3328c-4.8359,21.121-.32,54.8384,13.357,66.9032l-29.3156,65.534S93.4781,240.7819,87.2664,293.1948c-5.6247,47.46-4.8292,93.6745-4.5545,97.6988.5779,8.4685,13.395,11.7137,13.395,11.7137s1.4107-52.9007,9.7375-106.3364c7.4034-47.51,21.5482-95.4545,25.5892-106.829,5.9672-16.7967,11.3861-55.0966,16.4748-63.6817,18.5951-1.3172,39.8491-32.4218,45.0453-55.1246C198.6021,45.97,187.3267,22.3455,167.7723,17.87Zm13.43,50.0765c-3.774,16.4765-22.541,52.1985-35.6039,49.2079-13.0659-2.99-15.474-43.56-11.7035-60.0388,3.7741-16.4765,16.5093-23.4313,29.5723-20.4407S184.9726,51.467,181.202,67.946Z"/><path d="M230.0249,364.8664c-1.0459-3.6152-15.7425-40.7431-37.2607-79.9868C165.75,235.6127,130.821,182.51,130.821,182.51L80.4231,130.729c8.4137-16.1515,1.123-49.0143-10.57-67.065A55.484,55.484,0,0,0,55.1,48.26a56.3339,56.3339,0,0,1,.1367-19.8254L37.8245,40.8163C29.57,39.26,21.3489,40.4949,14.46,44.9565c-16.8368,10.9057-19.3342,36.9639-5.576,58.2,12.7839,19.74,43.89,41.9186,61.7332,36.1917,7.7069,6.303,25.9734,40.4609,37.3666,54.2363,8.1738,9.8814,41.4652,55.73,67.7894,99.9791s45.6812,86.8969,45.6812,86.8969S232.3838,373.02,230.0249,364.8664ZM19.003,96.6032c-9.189-14.1893-5.3015-28.17,5.9458-35.4555s25.5947-5.1159,34.7862,9.07c9.189,14.1894,20.3218,51.9933,9.0715,59.2795C57.5592,136.7827,28.1944,110.7891,19.003,96.6032Z"/></svg>