<svg xmlns="http://www.w3.org/2000/svg" width="516.3644" height="549.8108" viewBox="0 0 516.3644 549.8108"><title>wings_v001</title><path d="M82.3644,0s-30,122,22,196,98,109,109,129,22,79,22,79-2.5-89.5-43.5-132.5-91-88-87-172S82.3644,0,82.3644,0Z" fill="lime"/><path d="M49.3644,96s-36,94,36,189,135.5,121.5,135.5,121.5-106-86-115-145S49.3644,96,49.3644,96Z" fill="lime"/><path d="M.3644,197s-18,112,199,224c0,0-92.5-54.5-114.5-106.5S.3644,197,.3644,197Z" fill="lime"/><path d="M2.3644,304s16,94,181,143c0,0-71.5-33.5-100.5-74.5S2.3644,304,2.3644,304Z" fill="lime"/><path d="M11.3644,384s41,70,146,74c0-2-51.5-7.5-79.5-37.5S11.3644,384,11.3644,384Z" fill="lime"/><path d="M37.3644,435s17,49,117,46c0,0-41.5-3.5-64.5-22.5a112.3475,112.3475,0,0,0-49-23" fill="lime"/><path d="M61.3644,478s4,36,102,18c0,0-34.5,3.5-55.5-6.5S61.3644,478,61.3644,478Z" fill="lime"/><path d="M103.3644,523s43,21,75-6c.5.5-25.5,5.5-37.5,2.5S103.3644,523,103.3644,523Z" fill="lime"/><path d="M141.3644,548s35,10,54-17a37.2458,37.2458,0,0,1-26.5,6.5,36.2064,36.2064,0,0,0-27,8" fill="lime"/><path d="M434,0s30,122-22,196S314,305,303,325s-22,79-22,79,2.5-89.5,43.5-132.5,91-88,87-172S434,0,434,0Z" fill="lime"/><path d="M467,96s36,94-36,189S295.5,406.5,295.5,406.5s106-86,115-145S467,96,467,96Z" fill="lime"/><path d="M516,197s18,112-199,224c0,0,92.5-54.5,114.5-106.5S516,197,516,197Z" fill="lime"/><path d="M514,304s-16,94-181,143c0,0,71.5-33.5,100.5-74.5S514,304,514,304Z" fill="lime"/><path d="M505,384s-41,70-146,74c0-2,51.5-7.5,79.5-37.5S505,384,505,384Z" fill="lime"/><path d="M479,435s-17,49-117,46c0,0,41.5-3.5,64.5-22.5a112.3475,112.3475,0,0,1,49-23" fill="lime"/><path d="M455,478s-4,36-102,18c0,0,34.5,3.5,55.5-6.5S455,478,455,478Z" fill="lime"/><path d="M413,523s-43,21-75-6c-.5.5,25.5,5.5,37.5,2.5S413,523,413,523Z" fill="lime"/><path d="M375,548s-35,10-54-17a37.2458,37.2458,0,0,0,26.5,6.5,36.2064,36.2064,0,0,1,27,8" fill="lime"/></svg>