<svg xmlns="http://www.w3.org/2000/svg" width="108.368" height="151.868" viewBox="0 0 108.368 151.868">
  <g id="Hair_v001" transform="translate(0 -0.002)">
    <path id="Path_67" data-name="Path 67" d="M0,52.684a90.164,90.164,0,0,1,4.681-9.817c1.735-3.193,3.631-6.3,5.658-9.341A103.494,103.494,0,0,1,24.414,16.558q2.017-1.929,4.171-3.74T33.07,9.382A56.606,56.606,0,0,1,43.038,3.7,44.726,44.726,0,0,1,54.321.415,39.527,39.527,0,0,1,60.287,0a38.972,38.972,0,0,1,5.976.518,40.942,40.942,0,0,1,5.8,1.425,44.448,44.448,0,0,1,5.482,2.228,47.534,47.534,0,0,1,5.085,2.879,52.614,52.614,0,0,1,4.674,3.4,53.876,53.876,0,0,1,4.3,3.885,49.875,49.875,0,0,1,3.81,4.338,53.282,53.282,0,0,1,3.3,4.693q1.512,2.43,2.775,4.978a67.523,67.523,0,0,1,6.261,21.395,78.489,78.489,0,0,1,.6,10.975c-.022,1.825-.122,3.646-.278,5.457a50.761,50.761,0,0,1-.746,5.392c-.1-1.807-.261-3.6-.468-5.378s-.454-3.551-.738-5.309A103.086,103.086,0,0,0,103.885,50.5a74.8,74.8,0,0,0-7.947-19.126q-1.314-2.188-2.816-4.229c-1-1.357-2.044-2.675-3.16-3.923A49.662,49.662,0,0,0,74.118,11.379a34.212,34.212,0,0,0-28.137-.59,55.878,55.878,0,0,0-8.973,4.538c-1.45.889-2.865,1.852-4.262,2.854s-2.774,2.045-4.12,3.142A133.231,133.231,0,0,0,13.479,35.962,212.525,212.525,0,0,0,0,52.684Z" transform="translate(0 0)" fill="#e78413"/>
    <path id="Path_68" data-name="Path 68" d="M32,75.518A96.656,96.656,0,0,1,39.978,64.1c1.452-1.824,2.99-3.582,4.576-5.3s3.241-3.383,4.957-5a72.807,72.807,0,0,1,11.27-8.654,51.4,51.4,0,0,1,6.4-3.361A43.1,43.1,0,0,1,74.127,39.4a37.755,37.755,0,0,1,7.384-1.083,34.964,34.964,0,0,1,7.538.489,35.442,35.442,0,0,1,7.281,2.08,43.8,43.8,0,0,1,6.689,3.432A58.185,58.185,0,0,1,114.313,53.8a29.277,29.277,0,0,1,4.53,6.525A42.645,42.645,0,0,1,121.7,67.4c.2.6.346,1.2.516,1.8.08.3.167.6.242.9l.211.9c.135.6.277,1.205.384,1.808s.237,1.206.328,1.809a68.638,68.638,0,0,1,.764,7.227c.142,2.4.116,4.795.075,7.174-.072,2.38-.227,4.744-.406,7.1-.2,2.352-.42,4.7-.7,7.028l-.411,3.493c-.151,1.161-.3,2.323-.461,3.48-.625,4.635-1.39,9.237-2.246,13.813-1.721,9.152-3.817,18.2-6.175,27.17s-4.979,17.856-7.929,26.626c1.137-4.483,2.156-8.993,3.125-13.51s1.862-9.048,2.707-13.585c1.671-9.075,3.07-18.192,4.087-27.326a196.833,196.833,0,0,0,1.411-27.37c-.077-2.266-.177-4.525-.355-6.766-.16-2.24-.362-4.471-.625-6.672s-.552-4.386-.921-6.532c-.2-1.067-.376-2.141-.622-3.186l-.165-.79c-.058-.262-.126-.518-.189-.778-.131-.516-.244-1.043-.4-1.546a27.544,27.544,0,0,0-5.244-10.832,52.393,52.393,0,0,0-9.479-8.774,37.132,37.132,0,0,0-5.472-3.19A30.527,30.527,0,0,0,87.832,44.8a31.006,31.006,0,0,0-12.607-.286,40.272,40.272,0,0,0-6.3,1.67,52.571,52.571,0,0,0-6.1,2.62,70.515,70.515,0,0,0-11.364,7.3A105.634,105.634,0,0,0,41.2,65.194q-2.439,2.436-4.74,5.021C34.919,71.93,33.426,73.693,32,75.518Z" transform="translate(-23.37 -27.958)" fill="#e78413"/>
    <path id="Path_69" data-name="Path 69" d="M43,105.991A92.909,92.909,0,0,1,51.82,94.72q2.413-2.664,5.023-5.163c1.748-1.656,3.549-3.268,5.433-4.8a67.688,67.688,0,0,1,12.293-8.046,47.079,47.079,0,0,1,7-2.821c.6-.2,1.227-.35,1.843-.522s1.251-.292,1.879-.437a35.046,35.046,0,0,1,3.858-.559,30.891,30.891,0,0,1,7.919.319,29.552,29.552,0,0,1,7.617,2.475,31.621,31.621,0,0,1,3.478,1.952c.285.172.55.367.819.557l.806.574c.274.187.524.4.781.6l.768.614c1,.838,1.969,1.713,2.876,2.633.471.448.894.929,1.331,1.4l.652.715.647.8a28.039,28.039,0,0,1,3.994,6.935,37.443,37.443,0,0,1,2.1,7.394c.128.62.2,1.243.3,1.863s.156,1.243.219,1.864l.094.93c.025.31.043.62.061.93.032.62.08,1.238.086,1.855s.037,1.233.037,1.848l-.012,1.84c-.04,1.224-.078,2.444-.171,3.657-.167,2.427-.416,4.833-.733,7.218s-.668,4.755-1.083,7.109-.839,4.7-1.321,7.03c-.226,1.169-.489,2.33-.737,3.493-.277,1.157-.531,2.319-.838,3.469a131.8,131.8,0,0,1-4.259,13.6,122.726,122.726,0,0,1-5.728,13.039c-.53,1.063-1.108,2.1-1.669,3.146l-.88,1.548c-.288.519-.59,1.03-.9,1.538-1.2,2.046-2.5,4.035-3.866,5.98s-2.817,3.824-4.343,5.643a64.381,64.381,0,0,1-4.869,5.2c-.848.832-1.748,1.608-2.641,2.39l-1.38,1.126c-.458.378-.943.721-1.414,1.084a46.9,46.9,0,0,1-6.019,3.806,37.128,37.128,0,0,1-13.583,4.088l-.037-.424a34.136,34.136,0,0,0,6.916-1.333,37.8,37.8,0,0,0,6.524-2.675,46.516,46.516,0,0,0,5.964-3.778c.467-.36.948-.7,1.4-1.076l1.36-1.13c.879-.786,1.764-1.565,2.6-2.4a63.9,63.9,0,0,0,4.781-5.207c1.5-1.821,2.931-3.7,4.256-5.647s2.6-3.933,3.779-5.978c.607-1.011,1.158-2.055,1.725-3.088.539-1.049,1.1-2.088,1.6-3.153a120.408,120.408,0,0,0,5.457-13.041,130.617,130.617,0,0,0,3.918-13.572,89.281,89.281,0,0,0,2.23-13.918l.116-1.756c.031-.586.046-1.173.066-1.758.025-1.172.049-2.343.012-3.513a74.126,74.126,0,0,0-3.265-20.315,35.758,35.758,0,0,0-5.6-11.3l-.464-.583-.535-.6c-.36-.4-.708-.819-1.091-1.192-.74-.78-1.517-1.507-2.316-2.2l-.609-.5c-.2-.167-.4-.344-.616-.493l-.632-.467c-.211-.155-.418-.318-.639-.453a25.636,25.636,0,0,0-2.658-1.606,23.576,23.576,0,0,0-5.773-2.105,24.247,24.247,0,0,0-6.211-.54c-.528,0-1.059.061-1.59.094s-1.064.121-1.6.177c-.532.092-1.066.164-1.6.271s-1.067.206-1.6.348a46.071,46.071,0,0,0-6.327,2.039,72.849,72.849,0,0,0-12.083,6.419,123.5,123.5,0,0,0-11.249,8.316q-1.353,1.127-2.694,2.278t-2.651,2.343q-1.311,1.191-2.611,2.4T43,105.991Z" transform="translate(-31.404 -52.768)" fill="#e78413"/>
    <path id="Path_70" data-name="Path 70" d="M255.451,47.541,244.394,35.135l5.394-1.888L239,24.348l22.114,9.574,10.248,15.911-4.045-4.315,1.618,6.877-3.506,20.631Z" transform="translate(-174.545 -17.78)" fill="#e78413"/>
  </g>
</svg>
