<svg xmlns="http://www.w3.org/2000/svg" width="79" height="138.072" viewBox="0 0 79 138.072">
  <g id="Scissor_v001" transform="translate(0)">
    <path id="Path_42" data-name="Path 42" d="M111.751,6.128a10.3,10.3,0,0,0-5.475.262,24.316,24.316,0,0,0-6.922-4.626C95.012.122,86.76,0,86.76,0a33.656,33.656,0,0,1,9.768,4.783,17.244,17.244,0,0,1,4.156,5.195A18.447,18.447,0,0,0,96.1,18.665c-1.658,7.243-.11,18.806,4.581,22.944L90.63,64.083s-4.358,18.491-6.488,36.466a251.17,251.17,0,0,0-1.562,33.505c.2,2.9,4.594,4.017,4.594,4.017A326.717,326.717,0,0,1,90.513,101.6a252.232,252.232,0,0,1,8.776-36.636c2.046-5.76,3.9-18.9,5.65-21.839,6.377-.452,13.666-11.119,15.448-18.9C122.323,15.765,118.457,7.663,111.751,6.128ZM116.356,23.3c-1.294,5.651-7.73,17.9-12.21,16.876s-5.307-14.939-4.014-20.59,5.662-8.036,10.142-7.01,7.375,5.073,6.082,10.724Z" transform="translate(-54.214 0)" fill="#e78413"/>
    <path id="Path_43" data-name="Path 43" d="M78.885,143.812a222.984,222.984,0,0,0-12.778-27.431c-9.264-16.9-21.243-35.107-21.243-35.107L27.58,63.516c2.885-5.539.385-16.809-3.625-23A19.028,19.028,0,0,0,18.9,35.234a19.319,19.319,0,0,1,.047-6.8l-5.971,4.246A10.838,10.838,0,0,0,4.959,34.1C-.815,37.841-1.672,46.777,3.047,54.06,7.431,60.83,18.1,68.436,24.218,66.472c2.643,2.162,8.907,13.876,12.815,18.6A368.956,368.956,0,0,1,60.28,119.359c9.028,15.175,15.666,29.8,15.666,29.8S79.694,146.608,78.885,143.812Zm-72.369-92C3.365,46.946,4.7,42.152,8.556,39.653s8.778-1.754,11.93,3.11S27.455,60.595,23.6,63.093,9.669,56.677,6.517,51.813Z" transform="translate(0 -18.683)" fill="#e78413"/>
  </g>
</svg>
